<?xml version="1.0" encoding="utf-8"?>
<!-- Generator: Adobe Illustrator 17.1.0, SVG Export Plug-In . SVG Version: 6.00 Build 0)  -->
<!DOCTYPE svg PUBLIC "-//W3C//DTD SVG 1.1//EN" "http://www.w3.org/Graphics/SVG/1.1/DTD/svg11.dtd">
<svg version="1.1" id="Camada_1" xmlns="http://www.w3.org/2000/svg" xmlns:xlink="http://www.w3.org/1999/xlink" x="0px" y="0px"
	 viewBox="0 0 200 200" enable-background="new 0 0 200 200" xml:space="preserve">
<g>
	<g>
		<g>
			<circle fill="#DA8D00" cx="102.8" cy="92.7" r="17.4"/>
		</g>
		<g>
			<circle fill="#FFFFFF" cx="110.1" cy="85.5" r="7.2"/>
		</g>
	</g>
	<g>
		<path fill="#DA8D00" d="M101.3,70c0,0,0.1,0,0.1,0c-1.2,0-1.7,0.7-2,1.8C99.7,70.8,100.3,70,101.3,70z"/>
	</g>
	<g>
		<path fill="#DA8D00" d="M103.6,72.4L103.6,72.4c0-0.1-0.1-0.2-0.1-0.3C103.6,72.2,103.6,72.3,103.6,72.4z"/>
	</g>
	<g>
		<path fill="#DA8D00" d="M99.2,72.4c0-0.1,0.1-0.2,0.1-0.3C99.3,72.2,99.2,72.3,99.2,72.4L99.2,72.4z"/>
	</g>
	<g>
		<path fill="#DA8D00" d="M103.4,71.8c-0.4-1.1-0.8-1.8-2-1.8c0,0,0.1,0,0.1,0C102.6,70,103.1,70.8,103.4,71.8z"/>
	</g>
	<g>
		<path fill="#DA8D00" d="M24.9,68.9c0,0,63.8,2.4,78.3,2.4c14.5,0,70.4-2.4,70.4-2.4s-27.7-13.8-34.7-19.2
			c-3.4-13.1-6.4-38.3-11.4-39.7c-5-1.3-19.2,8.4-24,8.1c-4.9-0.3-22.7-9.3-26.7-8.2c-4,1.1-5.9,38.1-11,39.4
			C60.5,50.8,24.9,68.9,24.9,68.9z"/>
	</g>
	<path fill="#DA8D00" d="M103.1,135.4l-5.6-5.6c-0.6-0.6-1-1.2-1.4-1.8c-19.1-1.6-34.1-17.5-34.1-37c0-20.5,16.6-37.1,37.1-37.1
		c20.5,0,37.1,16.6,37.1,37.1c0,13.5-7.2,25.3-17.9,31.8l8.4,8.4c12.7-8.8,21.1-23.5,21.1-40.1c0-26.9-21.8-48.7-48.7-48.7
		c-26.9,0-48.7,21.8-48.7,48.7c0,26.2,20.6,47.5,46.5,48.7C98.9,137.9,100.9,136.5,103.1,135.4z"/>
	<g>
		<path fill="#DA8D00" d="M147.4,141.5c-0.9-1.7-2.2-2.8-4-3.4c-0.9-0.3-1.8-0.4-2.7-0.3c-0.9,0.1-1.8,0.3-2.6,0.7
			c-0.8,0.4-1.5,0.9-2.2,1.6c-0.6,0.7-1.1,1.5-1.4,2.3l-0.1,0.4c0,0,0,0,0,0L109.6,118c-1.5-1.5-3.1-2.2-5-2.1c-1.9,0-3.5,0.7-4.8,2
			c-0.7,0.7-1.2,1.4-1.5,2.3c-0.3,0.9-0.5,1.7-0.5,2.6c0,0.9,0.2,1.8,0.5,2.7c0.3,0.9,0.8,1.6,1.5,2.3l8.7,8.7
			c-3.9,1.2-7.4,3.3-10.4,6.3c-2.5,2.5-4.3,5.3-5.5,8.5s-1.9,6.5-1.9,9.8c0,3.3,0.6,6.6,1.8,9.8c1.2,3.2,3.1,6,5.5,8.5
			c2.5,2.5,5.4,4.4,8.6,5.6c3.2,1.2,6.5,1.8,9.8,1.8c3.3,0,6.6-0.7,9.8-1.9c3.2-1.3,6-3.1,8.4-5.5c2.4-2.4,4.2-5.2,5.5-8.4
			c0.2-0.5,0.3-1,0.5-1.5l0.1,0l7.3-22.5C148.4,145,148.3,143.2,147.4,141.5z"/>
		<g>
			<path fill="#FFFFFF" d="M101.2,119.2c2.2-2.2,5.6-2.5,7.9-0.7c-0.1-0.2-0.3-0.3-0.4-0.5c-2.3-2.3-6-2.1-8.4,0.2
				c-2.4,2.4-2.5,6.1-0.2,8.4c0.2,0.2,0.3,0.3,0.5,0.4C98.7,124.8,99,121.4,101.2,119.2z"/>
		</g>
	</g>
</g>
</svg>
